<?xml version="1.0" encoding="utf-8"?>
<!-- Generator: Adobe Illustrator 16.0.0, SVG Export Plug-In . SVG Version: 6.00 Build 0)  -->
<!DOCTYPE svg PUBLIC "-//W3C//DTD SVG 1.1//EN" "http://www.w3.org/Graphics/SVG/1.1/DTD/svg11.dtd">
<svg version="1.1" id="Calque_1" xmlns="http://www.w3.org/2000/svg" xmlns:xlink="http://www.w3.org/1999/xlink" x="0px" y="0px"
	 width="19.46px" height="30.088px" viewBox="0 0 19.46 30.088" enable-background="new 0 0 19.46 30.088" xml:space="preserve">
<g>
	<path fill="#00A5B7" d="M9.732-0.001c-5.375,0-9.729,4.356-9.732,9.73h0.004c0.025,2.399,1.686,6.169,3.576,9.84l4.166,7.42
		c0.852,1.412,1.418,2.302,1.42,2.307L9.73,30.18l0.564-0.884c0.002-0.005,0.57-0.895,1.424-2.307l4.164-7.418
		c1.889-3.67,3.547-7.44,3.578-9.842C19.46,4.355,15.107-0.001,9.732-0.001z M9.73,14.037c-2.596,0-4.697-2.104-4.697-4.697
		S7.134,4.643,9.73,4.643c2.594,0,4.697,2.104,4.697,4.697S12.324,14.037,9.73,14.037z"/>
	<circle fill="#00A5B7" cx="9.73" cy="9.342" r="2.04"/>
</g>
</svg>
